PathFileType	4	(X/Y/Z)	/Users/niels/Desktop/University/Third Semester/Perception and Action/Exam/Gymnastics Motion Tracking/Code for Gym Tracking/Analyzed Data/Start Salto/stsalto_bad_id14_1_Sports2D/stsalto_bad_id14_1_Sports2D_px_person00.trc
DataRate	CameraRate	NumFrames	NumMarkers	Units	OrigDataRate	OrigDataStartFrame	OrigNumFrames
29.83695652173913	29.83695652173913	7	22	m	29.83695652173913	0	184
Frame#	Time	Hip			RHip			RKnee			RAnkle			RBigToe			RSmallToe			RHeel			LHip			LKnee			LAnkle			LBigToe			LSmallToe			LHeel			Neck			Head			Nose			RShoulder			RElbow			RWrist			LShoulder			LElbow			LWrist		
		X1	Y1	Z1	X2	Y2	Z2	X3	Y3	Z3	X4	Y4	Z4	X5	Y5	Z5	X6	Y6	Z6	X7	Y7	Z7	X8	Y8	Z8	X9	Y9	Z9	X10	Y10	Z10	X11	Y11	Z11	X12	Y12	Z12	X13	Y13	Z13	X14	Y14	Z14	X15	Y15	Z15	X16	Y16	Z16	X17	Y17	Z17	X18	Y18	Z18	X19	Y19	Z19	X20	Y20	Z20	X21	Y21	Z21	X22	Y22	Z22
0	0.0	-0.014645671914324941	-0.4710250484421499	0.0	-0.0017176105553938753	-0.4823589656914919	0.0	0.042072514773219154	-0.5844432123578114	0.0	0.0679190309932836	-0.7205469534119733	0.0	0.11818056957609654	-0.7286848071290948	0.0	0.1084680873396556	-0.7351630181707232	0.0	0.06149514780134652	-0.7367683604470544	0.0	-0.008145936010614545	-0.4823589420402684	0.0	0.045345082179343604	-0.5828256233119276	0.0	0.06804388730958122	-0.7189374454825301	0.0	0.11504029858320079	-0.7335260506694444	0.0	0.11342004241305165	-0.7319037282335765	0.0	0.06480022763223182	-0.7383872396064353	0.0	-0.013005550718295638	-0.2960094799686764	0.0	0.0031957107784803475	-0.244116545884168	0.0	0.0048474634630104345	-0.26521595348696364	0.0	-0.0017096289431304424	-0.31221948356256873	0.0	0.0015423851416809368	-0.40134760795405283	0.0	0.029059863024663856	-0.4629490609156736	0.0	-0.0032556655501305804	-0.31870188522319254	0.0	5.639740796912161e-06	-0.40458642281035606	0.0	0.030794916561361955	-0.46455605337496914	0.0
1	0.03351548269581057	-0.014591812369740489	-0.4710434432506285	0.0	-0.001684765274120893	-0.482372022289547	0.0	0.042135765367099086	-0.5844541653045527	0.0	0.0679701436743888	-0.7205585766200584	0.0	0.11823197686630875	-0.728703839729834	0.0	0.10851500493354588	-0.7351817278640199	0.0	0.061541754382193906	-0.7367816392250942	0.0	-0.008081937576641983	-0.4823708173337876	0.0	0.04541945233797958	-0.5828389357356867	0.0	0.06812738084455103	-0.7189447061337978	0.0	0.11512465167337775	-0.7335336775183392	0.0	0.11350419023937802	-0.7319110361247771	0.0	0.06488345354261238	-0.7383964212501382	0.0	-0.012930393713416925	-0.29602878452633424	0.0	0.00326843347867249	-0.24411828746765285	0.0	0.004934168355635009	-0.2652311984720493	0.0	-0.0016636871249387846	-0.31223853799052526	0.0	0.0015892516760012184	-0.4013679266124237	0.0	0.029113382296716693	-0.46297349373568897	0.0	-0.0031694310292836457	-0.31872366172949873	0.0	0.000112534677667152	-0.4046050367164295	0.0	0.030913540383358272	-0.4645728075357197	0.0
2	0.06703096539162114	-0.014529229727787555	-0.4710605656376967	0.0	-0.0016359495456123381	-0.48238588990113374	0.0	0.04221413060901864	-0.5844683692887865	0.0	0.06808012585711454	-0.7205849893397646	0.0	0.1183251240740159	-0.7287201958176059	0.0	0.10859340094032426	-0.7351999459670864	0.0	0.06160582229895838	-0.7368001476720031	0.0	-0.008013057080270057	-0.4823826108689736	0.0	0.045496831054172626	-0.582855421404321	0.0	0.06821302917852941	-0.7189562282618632	0.0	0.11521025645867748	-0.7335430664392695	0.0	0.11358928342220279	-0.7319210629185154	0.0	0.0649703886500259	-0.7384087311175517	0.0	-0.012842975256360937	-0.29604971326417634	0.0	0.003353881145365634	-0.24413263877059527	0.0	0.005023909583519399	-0.2652477845063487	0.0	-0.0015969228040598736	-0.3122556452578542	0.0	0.0016504307880659372	-0.40138626515051096	0.0	0.02920642165285387	-0.46298402119009024	0.0	-0.0030800564115970857	-0.31874527796646135	0.0	0.00022516028380507823	-0.4046217664060885	0.0	0.031046852182250482	-0.46457857082486753	0.0
3	0.10054644808743171	-0.014486421766174313	-0.4710634138488051	0.0	-0.0015803534802496517	-0.482392657829403	0.0	0.04227788847679901	-0.5844811646130309	0.0	0.06826082963762582	-0.7206299649785308	0.0	0.11845850086402113	-0.7287193772371556	0.0	0.1086968102137652	-0.7352050652382112	0.0	0.06167031284108695	-0.7368192270940442	0.0	-0.007977372551785288	-0.4823864976932054	0.0	0.045530920566783865	-0.5828688185764413	0.0	0.0682479148013296	-0.7189705424420559	0.0	0.11524293925449745	-0.733550587012549	0.0	0.1136210469197325	-0.7319311223237224	0.0	0.06500948545210646	-0.7384205728709803	0.0	-0.012782993446182403	-0.29606089680043135	0.0	0.003414303190582227	-0.24416815625897703	0.0	0.005062348342464258	-0.26525677800043934	0.0	-0.0015233559889644074	-0.31225685369564743	0.0	0.0017062929698955294	-0.40138782021500424	0.0	0.029334383604126442	-0.4629539821956907	0.0	-0.0030414932745739284	-0.3187523768514799	0.0	0.00027805236351805554	-0.40462299654430184	0.0	0.031128608079155067	-0.464553941962792	0.0
4	0.13406193078324227	-0.014519498131523896	-0.4710298215919725	0.0	-0.0015446717137863897	-0.48237780323203544	0.0	0.04226458610057664	-0.5844821840419845	0.0	0.06849474034819293	-0.7206905111552128	0.0	0.11860215307620656	-0.7286774885687345	0.0	0.10879322160541194	-0.7351751068367887	0.0	0.06169367398002433	-0.7368272187309447	0.0	-0.008045428916394998	-0.48236869017766737	0.0	0.04543786116944995	-0.5828659771094582	0.0	0.06813702679239286	-0.7189822640556035	0.0	0.1151260574712594	-0.7335486658661499	0.0	0.11350285909129183	-0.7319346855615759	0.0	0.0649071403422071	-0.7384235404609241	0.0	-0.012828682265222484	-0.29604116292829813	0.0	0.0033746074937570036	-0.24423173279041047	0.0	0.004951383471979647	-0.2652415003321037	0.0	-0.0014813960874304778	-0.3122187578002698	0.0	0.0017127616284670054	-0.40134770135459374	0.0	0.02946330427565429	-0.4628453066490776	0.0	-0.0031512256597226937	-0.31871966779739946	0.0	0.00015166963988564772	-0.4045858754049061	0.0	0.031032032864944496	-0.46447178724620086	0.0
5	0.16757741347905283	-0.014714782264808476	-0.4709299103854882	0.0	-0.001580554573899601	-0.4823202781557204	0.0	0.04207330238267399	-0.5844540103699823	0.0	0.06870465135968563	-0.7207492014819853	0.0	0.11867680125540828	-0.7285634886446802	0.0	0.10880966308108768	-0.7350797556074826	0.0	0.06160213069148017	-0.7368031269228547	0.0	-0.00832031066789678	-0.4823099683427659	0.0	0.045097613965975475	-0.5828256552852272	0.0	0.06774548650832957	-0.7189800436076842	0.0	0.11472325768576917	-0.7335251281516615	0.0	0.11309867005267273	-0.7319201829679763	0.0	0.06452905249578007	-0.7384030709278063	0.0	-0.01310049138622127	-0.29595943125017843	0.0	0.0031183258969548827	-0.24432172577405467	0.0	0.004551023000659175	-0.26517741247187115	0.0	-0.0015434294367968329	-0.3121103490546568	0.0	0.0015953477632389113	-0.4012328516545313	0.0	0.029510280505270513	-0.46261717033149424	0.0	-0.0035484748818712573	-0.318611904900419	0.0	-0.00032639311372976835	-0.4044801130314654	0.0	0.03056658049106315	-0.46430397690462455	0.0
6	0.20109289617486342	-0.015175365732331273	-0.470734648776677	0.0	-0.0017663464320264639	-0.48219698540806066	0.0	0.04157589349486766	-0.5843735325159959	0.0	0.0687192188489231	-0.720765034081803	0.0	0.11853549657277919	-0.728349315486263	0.0	0.10862163303015196	-0.7348883169237858	0.0	0.06129207052341871	-0.7367170611130756	0.0	-0.008916548955238615	-0.4821905153245239	0.0	0.04438095849844456	-0.5827208940824141	0.0	0.06692999813992433	-0.7189455002767184	0.0	0.11389111333461169	-0.7334646099694387	0.0	0.1122658429424414	-0.7318713958032295	0.0	0.06373011681254856	-0.7383392052177048	0.0	-0.013742406795212244	-0.29578093426097757	0.0	0.0025048855114348945	-0.24441688939362025	0.0	0.0037112991628129787	-0.2650369733199226	0.0	-0.0018168363491911515	-0.3119024690765787	0.0	0.0012545777228519632	-0.4010120382955139	0.0	0.029328043427360416	-0.46224876135001935	0.0	-0.004382569836939611	-0.3183927637040607	0.0	-0.0013439126307997471	-0.40427719910929166	0.0	0.02951176923062986	-0.4640383547935163	0.0
